<?xml version="1.0" encoding="utf-8"?>
<!-- Generator: Adobe Illustrator 24.0.3, SVG Export Plug-In . SVG Version: 6.00 Build 0)  -->
<svg version="1.1" xmlns="http://www.w3.org/2000/svg" xmlns:xlink="http://www.w3.org/1999/xlink" x="0px" y="0px"
	 viewBox="0 0 1080 1080" style="enable-background:new 0 0 1080 1080;" xml:space="preserve">
<style type="text/css">
	.st0{fill:#609937;}
	.st1{fill:#99E067;}
	.st2{fill:#83C950;}
	.st3{fill:#75B543;}
	.st4{fill:#FFFFFF;}
</style>
<g id="foot">
	<path class="st0" d="M692.75,525.07c-1.68-16.87-6.08-32.93-12.76-47.74l43.62-25.18c7.34-4.24,9.86-13.63,5.62-20.97
		c-4.24-7.34-13.63-9.86-20.97-5.62l0,0l-43.65,25.2c-9.69-13.44-21.5-25.25-34.94-34.94l25.2-43.65
		c4.24-7.34,1.72-16.73-5.62-20.97c-7.34-4.24-16.73-1.72-20.97,5.62l0,0l-25.18,43.62c-14.81-6.69-30.88-11.09-47.74-12.76v-50.4
		c0-8.48-6.87-15.35-15.35-15.35c-8.48,0-15.35,6.87-15.35,15.35v50.4c-16.87,1.67-32.93,6.08-47.74,12.76l-25.18-43.62
		c-4.24-7.34-13.63-9.86-20.97-5.62c-7.34,4.24-9.86,13.63-5.62,20.97l0,0l25.2,43.65c-13.44,9.69-25.25,21.5-34.94,34.94
		l-43.65-25.2c-7.34-4.24-16.73-1.72-20.97,5.62c-4.24,7.34-1.72,16.73,5.62,20.97l0,0l43.62,25.18
		c-6.69,14.81-11.09,30.88-12.76,47.75l-50.4,0c-8.48,0-15.35,6.87-15.35,15.35c0,8.48,6.87,15.35,15.35,15.35h50.4
		c1.67,16.87,6.07,32.93,12.76,47.74l-43.62,25.19c-7.34,4.24-9.86,13.63-5.62,20.97c4.24,7.34,13.63,9.86,20.97,5.62h0l43.65-25.2
		c9.69,13.44,21.5,25.25,34.94,34.94l-25.2,43.65c-4.24,7.34-1.72,16.73,5.62,20.97c7.34,4.24,16.73,1.72,20.97-5.62l0,0
		l25.18-43.62c14.81,6.69,30.88,11.09,47.74,12.76v50.4c0,8.48,6.87,15.35,15.35,15.35c8.48,0,15.35-6.87,15.35-15.35v-50.4
		c16.87-1.68,32.93-6.08,47.74-12.76l25.18,43.62c4.24,7.34,13.63,9.86,20.97,5.62c7.34-4.24,9.86-13.63,5.62-20.97l0,0l-25.2-43.65
		c13.44-9.69,25.25-21.5,34.94-34.94l43.65,25.2c7.34,4.24,16.73,1.72,20.97-5.62c4.24-7.34,1.72-16.73-5.62-20.97l0,0l-43.62-25.18
		c6.69-14.81,11.09-30.88,12.76-47.74h50.4c8.48,0,15.35-6.87,15.35-15.35c0-8.48-6.87-15.35-15.35-15.35H692.75L692.75,525.07z"/>
</g>
<g id="ujung">
	<g>
		<path class="st1" d="M540,348.86c14.87,0,26.93-12.06,26.93-26.93c0-14.87-12.06-26.93-26.93-26.93
			c-14.87,0-26.93,12.06-26.93,26.93C513.07,336.8,525.13,348.86,540,348.86z"/>
		<path class="st1" d="M444.43,374.47c12.88-7.44,17.29-23.91,9.86-36.79c-7.44-12.88-23.91-17.29-36.79-9.86
			c-12.88,7.44-17.29,23.9-9.86,36.79C415.08,377.49,431.55,381.9,444.43,374.47z"/>
		<path class="st1" d="M758.07,513.07c-14.87,0-26.93,12.06-26.93,26.93c0,14.87,12.06,26.93,26.93,26.93
			c14.87,0,26.93-12.06,26.93-26.93C785,525.13,772.94,513.07,758.07,513.07z"/>
		<path class="st1" d="M337.68,625.71c-12.88,7.44-17.29,23.91-9.86,36.79c7.44,12.88,23.9,17.29,36.79,9.86
			c12.88-7.44,17.29-23.91,9.86-36.79C367.03,622.69,350.56,618.28,337.68,625.71z"/>
		<path class="st1" d="M348.86,540c0-14.87-12.06-26.93-26.93-26.93c-14.87,0-26.93,12.06-26.93,26.93
			c0,14.87,12.06,26.93,26.93,26.93C336.8,566.93,348.86,554.87,348.86,540z"/>
		<path class="st1" d="M337.68,454.29c12.88,7.44,29.35,3.02,36.79-9.86c7.44-12.88,3.02-29.35-9.86-36.79
			c-12.88-7.44-29.35-3.02-36.79,9.86C320.39,430.38,324.8,446.85,337.68,454.29z"/>
		<path class="st1" d="M444.43,705.53c-12.88-7.44-29.35-3.02-36.79,9.86c-7.44,12.88-3.02,29.35,9.86,36.79
			c12.88,7.44,29.35,3.02,36.79-9.86C461.72,729.44,457.31,712.97,444.43,705.53z"/>
		<path class="st1" d="M540,731.14c-14.87,0-26.93,12.06-26.93,26.93c0,14.87,12.06,26.93,26.93,26.93
			c14.87,0,26.93-12.06,26.93-26.93C566.93,743.2,554.87,731.14,540,731.14z"/>
		<path class="st1" d="M742.32,625.71c-12.88-7.44-29.35-3.02-36.79,9.86c-7.44,12.88-3.02,29.35,9.86,36.79
			c12.88,7.44,29.35,3.02,36.79-9.86C759.61,649.62,755.2,633.15,742.32,625.71z"/>
		<path class="st1" d="M742.32,454.29c12.88-7.44,17.29-23.91,9.86-36.79c-7.44-12.88-23.91-17.29-36.79-9.86
			c-12.88,7.44-17.29,23.9-9.86,36.79C712.97,457.31,729.44,461.72,742.32,454.29z"/>
		<path class="st1" d="M635.57,705.53c-12.88,7.44-17.29,23.91-9.86,36.79c7.44,12.88,23.91,17.29,36.79,9.86
			c12.88-7.44,17.29-23.91,9.86-36.79C664.92,702.51,648.45,698.1,635.57,705.53z"/>
		<path class="st1" d="M635.57,374.47c12.88,7.44,29.35,3.02,36.79-9.86c7.44-12.88,3.02-29.35-9.86-36.79
			c-12.88-7.44-29.35-3.02-36.79,9.86C618.28,350.56,622.69,367.03,635.57,374.47z"/>
	</g>
</g>
<g id="core_2">
	<g>
		<g>
			<path class="st2" d="M540,670.48c72.06,0,130.48-58.42,130.48-130.48S612.06,409.52,540,409.52
				c-72.06,0-130.48,58.42-130.48,130.48S467.93,670.48,540,670.48L540,670.48z"/>
		</g>
		<g>
			<path class="st3" d="M670.48,540c0,72.07-58.42,130.48-130.48,130.48c-41,0-77.59-18.91-101.5-48.48
				c22.41,18.14,50.95,29.01,82.03,29.01c72.06,0,130.48-58.42,130.48-130.48c0-31.07-10.86-59.61-29-82.02
				C651.58,462.43,670.48,499.01,670.48,540z"/>
		</g>
	</g>
</g>
<g id="core">
	<g>
		<path class="st1" d="M566.24,540.43c0-8.67-4.2-16.36-10.68-21.14c-4.36-3.21-9.73-5.11-15.55-5.11
			c-14.5,0-26.24,11.75-26.24,26.24c0,5.81,1.9,11.19,5.1,15.54c4.77,6.49,12.47,10.7,21.14,10.7
			C554.49,566.66,566.24,554.92,566.24,540.43z"/>
		<path class="st1" d="M599.28,595.04c-4.36-3.21-9.73-5.11-15.55-5.11c-14.5,0-26.24,11.75-26.24,26.24c0,5.81,1.9,11.19,5.1,15.54
			c4.77,6.49,12.47,10.7,21.14,10.7c14.49,0,26.24-11.75,26.24-26.24C609.97,607.51,605.77,599.82,599.28,595.04z"/>
		<path class="st1" d="M643.02,519.29c-4.35-3.21-9.73-5.11-15.55-5.11c-14.49,0-26.24,11.75-26.24,26.24
			c0,5.82,1.9,11.2,5.11,15.55c4.78,6.48,12.47,10.69,21.14,10.69c14.49,0,26.24-11.75,26.24-26.24
			C653.71,531.75,649.5,524.07,643.02,519.29z"/>
		<path class="st1" d="M583.73,490.92c14.49,0,26.24-11.75,26.24-26.24c0-8.66-4.2-16.35-10.68-21.12
			c-4.36-3.22-9.73-5.11-15.56-5.11c-14.5,0-26.24,11.75-26.24,26.24c0,5.82,1.9,11.2,5.1,15.55
			C567.36,486.71,575.06,490.92,583.73,490.92z"/>
		<path class="st1" d="M496.27,490.92c14.49,0,26.24-11.75,26.24-26.24c0-8.67-4.2-16.35-10.68-21.13
			c-4.36-3.21-9.73-5.11-15.55-5.11c-14.5,0-26.24,11.75-26.24,26.24c0,5.82,1.9,11.2,5.1,15.55
			C479.9,486.71,487.59,490.92,496.27,490.92z"/>
		<path class="st1" d="M478.77,540.43c0-8.68-4.21-16.36-10.69-21.14c-4.35-3.2-9.72-5.1-15.55-5.1c-14.5,0-26.24,11.75-26.24,26.24
			c0,5.81,1.9,11.19,5.1,15.54c4.77,6.49,12.47,10.7,21.14,10.7C467.02,566.66,478.77,554.92,478.77,540.43z"/>
		<path class="st1" d="M511.81,595.03c-4.35-3.2-9.72-5.1-15.55-5.1c-14.5,0-26.24,11.75-26.24,26.24c0,5.81,1.9,11.19,5.1,15.54
			c4.77,6.49,12.47,10.7,21.14,10.7c14.49,0,26.24-11.75,26.24-26.24C522.5,607.5,518.29,599.81,511.81,595.03z"/>
	</g>
</g>
<g id="shine">
	<g>
		<g>
			<path class="st4" d="M426.29,547.96c-3.38,0-6.12-2.74-6.12-6.12c0-39.44,19.25-76.6,51.5-99.41c2.76-1.95,6.58-1.3,8.54,1.46
				c1.95,2.76,1.3,6.58-1.46,8.54c-29,20.51-46.32,53.93-46.32,89.4C432.42,545.22,429.68,547.96,426.29,547.96z"/>
		</g>
		<g>
			<path class="st4" d="M504.22,438.68c-2.54,0-4.92-1.6-5.79-4.13c-1.1-3.2,0.6-6.68,3.8-7.78c12.72-4.38,26.04-6.6,39.61-6.6
				c3.38,0,6.12,2.74,6.12,6.12c0,3.38-2.74,6.12-6.12,6.12c-12.21,0-24.19,1.99-35.62,5.93
				C505.55,438.57,504.88,438.68,504.22,438.68z"/>
		</g>
	</g>
</g>
</svg>
